<svg xmlns="http://www.w3.org/2000/svg" viewBox="0 0 947.62 164.63"><defs><style>.cls-1{fill:#5d5857;}.cls-2{fill:#004098;}</style></defs><g id="ないよう"><polygon class="cls-1" points="34.89 33.26 5.23 33.26 0 62.92 29.66 62.92 19.2 122.24 55.85 166.74 79.38 33.26 34.89 33.26"/><path class="cls-2" d="M70.93.46l-2.12,12a8.43,8.43,0,0,0-4.61,5.94,5.51,5.51,0,0,0,5.56,6.75,8.4,8.4,0,0,0,7.93-6.75,5.54,5.54,0,0,0-2.51-5.94l1-5.75h75.87l-4.13,23.38H118.27l-15.69,89H82.08a5.44,5.44,0,0,0-5.33-3.6,8.4,8.4,0,0,0-7.94,6.74A5.51,5.51,0,0,0,74.37,129a8.3,8.3,0,0,0,6.6-3.61h26.88l15.69-89H153.2L159.54.46Z"/><polygon class="cls-2" points="253.37 39.85 186.02 39.85 186.02 49.26 213.31 49.26 213.31 98.1 225.96 98.1 225.96 49.26 253.37 49.26 253.37 39.85"/><polygon class="cls-2" points="496.31 98.1 496.31 62.88 483.56 62.88 483.56 62.88 439.19 62.88 439.19 39.85 426.54 39.85 426.54 98.1 439.19 98.1 439.19 72.53 483.56 72.53 483.56 98.1 496.31 98.1"/><polygon class="cls-1" points="669.64 56.08 661.05 80.76 643.95 56.08 635.08 56.08 619.42 80.74 610.16 56.08 597.14 56.08 613.39 98.1 622.15 98.1 639.14 72.22 655.89 98.1 664.41 98.1 680.69 56.08 669.64 56.08"/><path class="cls-1" d="M699.74,56.08v42h63.6v-42Zm51,30.52h-38.3v-19h38.3Z"/><polygon class="cls-1" points="579.49 55.01 579.49 39.85 515.01 39.85 515.01 73.34 569.26 73.34 569.26 88.11 526.04 88.11 526.04 82.94 515.01 82.94 515.01 98.1 580.29 98.1 580.29 63 525.89 63 525.89 49.03 568.46 49.03 568.46 55.01 579.49 55.01"/><path class="cls-1" d="M801.27,65.17,824.5,65v-9H788.86v42h12.41Z"/><path class="cls-2" d="M322.4,56.08H262.76v42H323v-10H275.4V80.85H323V56.08ZM302.82,71.89H275.4V65h34.93v6.85Z"/><polygon class="cls-2" points="359.5 71.89 359.5 65.04 406.49 65.04 406.49 56.08 346.86 56.08 346.86 98.1 407.07 98.1 407.07 88.11 359.5 88.11 359.5 80.84 359.5 71.89"/><path class="cls-1" d="M879.66,39.85V56.08H864.2c-8.51,0-13.71,1-17.39,3.26-5.9,3.6-9.27,10.16-9.27,18,0,13.39,8.55,20.76,24.08,20.76H892.3V39.85Zm0,50H863.44c-8.52,0-13-4.27-13-12.35,0-10.57,6.93-12.73,17.34-12.73h11.91Z"/></g></svg>